<svg xmlns="http://www.w3.org/2000/svg" viewBox="0 0 84.46 124.73"><defs><style>.cls-1{fill:#c21a26;}</style></defs><title>Fichier 1</title><g id="Calque_2" data-name="Calque 2"><g id="Calque_1-2" data-name="Calque 1"><path class="cls-1" d="M49.08,123.15a27.22,27.22,0,0,1-8.89-5.85,28.59,28.59,0,0,1-6.06-8.74,28.26,28.26,0,0,1,5.2-30.73A28.1,28.1,0,0,1,48,71.65a26.33,26.33,0,0,1,10.61-2.43,26.89,26.89,0,0,1,10.76,2C72.38,72.42,76,75.46,76,77.51A3.77,3.77,0,0,1,74.9,80.3a3.82,3.82,0,0,1-2.69,1.22,3.73,3.73,0,0,1-2.41-1.07,13.65,13.65,0,0,0-3.35-2,19.74,19.74,0,0,0-7.72-1.35,18.9,18.9,0,0,0-7.57,1.72A20,20,0,0,0,40.93,89.69a20.89,20.89,0,0,0,.35,15.67,20.67,20.67,0,0,0,4.37,6.35A19.69,19.69,0,0,0,52,115.9a18.43,18.43,0,0,0,7.64,1.39,19.6,19.6,0,0,0,7.65-1.69,43.32,43.32,0,0,0,9.27-6.14l.95-.89c.72-.67,1.61-1.53,2.52-2.45A31,31,0,0,0,84.46,94c-2.87,6.67-10.08,10.29-17.13,10,21.89-20.28,13.91-52.22-3.82-72.3,4.35,7.48,5.64,17.77-.38,24.76C61.25,45,54.21,36.55,46.33,28.69S36.18,10.86,38.1,0C25.54,5.94,23.2,21.29,24.19,33.4c.6,7.41,4.72,13.46,7.11,20.36a57.74,57.74,0,0,1,2.83,24.5C33.3,60,19.25,44.92,4.63,35.48c9.5,13.68,12.9,32.46,5.89,48C5.77,80,3.93,73.57,3.37,68-.07,79.86-.17,96,10.94,104A18,18,0,0,1,0,98.51c7.4,16.55,24.84,26.1,42.59,26.22a49.31,49.31,0,0,0,9-.81A24.78,24.78,0,0,1,49.08,123.15Z"/></g></g></svg>