<svg xmlns="http://www.w3.org/2000/svg" viewBox="0 0 512 512"><defs><style>.cls-1{fill:#c11a26;}</style></defs><title>Fichier 2</title><g id="Calque_2" data-name="Calque 2"><g id="Capa_1" data-name="Capa 1"><path class="cls-1" d="M363.27,0H148.73C66.72,0,0,66.72,0,148.73V363.27C0,445.28,66.72,512,148.73,512H363.27c82,0,148.73-66.72,148.73-148.73V148.73C512,66.72,445.28,0,363.27,0ZM472,363.27A108.85,108.85,0,0,1,363.27,472H148.73A108.85,108.85,0,0,1,40,363.27V148.73A108.86,108.86,0,0,1,148.73,40H363.27A108.85,108.85,0,0,1,472,148.73Z"/><path class="cls-1" d="M256,118c-76.09,0-138,61.91-138,138s61.91,138,138,138,138-61.91,138-138S332.09,118,256,118Zm0,236a98,98,0,1,1,98-98A98.11,98.11,0,0,1,256,354Z"/><circle class="cls-1" cx="396" cy="116" r="20"/></g></g></svg>