<svg xmlns="http://www.w3.org/2000/svg" viewBox="0 0 513 513"><defs><style>.cls-1{fill:#fff;stroke:#000;stroke-miterlimit:10;}</style></defs><title>Fichier 7</title><g id="Calque_2" data-name="Calque 2"><g id="Capa_1" data-name="Capa 1"><path class="cls-1" d="M363.77.5H149.23C67.22.5.5,67.22.5,149.23V363.77c0,82,66.72,148.73,148.73,148.73H363.77c82,0,148.73-66.72,148.73-148.73V149.23C512.5,67.22,445.78.5,363.77.5ZM472.5,363.77A108.85,108.85,0,0,1,363.77,472.5H149.23A108.85,108.85,0,0,1,40.5,363.77V149.23A108.86,108.86,0,0,1,149.23,40.5H363.77A108.85,108.85,0,0,1,472.5,149.23Z"/><path class="cls-1" d="M256.5,118.5c-76.09,0-138,61.91-138,138s61.91,138,138,138,138-61.91,138-138S332.59,118.5,256.5,118.5Zm0,236a98,98,0,1,1,98-98A98.11,98.11,0,0,1,256.5,354.5Z"/><circle class="cls-1" cx="396.5" cy="116.5" r="20"/></g></g></svg>