<svg xmlns="http://www.w3.org/2000/svg" viewBox="0 0 301.68 102.53"><defs><style>.cls-1{fill:#fff;}.cls-2{fill:#c21a26;}</style></defs><title>Fichier 1</title><g id="Calque_2" data-name="Calque 2"><g id="Calque_1-2" data-name="Calque 1"><path class="cls-1" d="M90.43,59.28a13.89,13.89,0,0,1,5.48,1.09A14.2,14.2,0,0,1,103.5,68a13.93,13.93,0,0,1,1.1,5.48V99.27a1.26,1.26,0,0,1-2.51,0V87.61H81.74a1.25,1.25,0,0,1,0-2.5h20.35V73.44a11,11,0,0,0-.94-4.54A12,12,0,0,0,95,62.72a11.43,11.43,0,0,0-9.08,0,12.73,12.73,0,0,0-3.72,2.5,11.27,11.27,0,0,0-2.5,3.68,11.5,11.5,0,0,0-.9,4.54V99.27a1.26,1.26,0,0,1-2.51,0V73.44A13.93,13.93,0,0,1,77.36,68a14.18,14.18,0,0,1,3-4.54,14.39,14.39,0,0,1,4.5-3.05A13.77,13.77,0,0,1,90.43,59.28Z"/><path class="cls-1" d="M143.61,98.57a.84.84,0,0,1,.28.86,1.8,1.8,0,0,1-.51.86,1.34,1.34,0,0,1-.7.23,1.14,1.14,0,0,1-1-.46l-9.32-12.45h-8a1.25,1.25,0,1,1,0-2.5H133a11.41,11.41,0,0,0,8.22-3.41,12.54,12.54,0,0,0,2.5-3.72,11.32,11.32,0,0,0,0-9.08,12.1,12.1,0,0,0-2.5-3.68,12.36,12.36,0,0,0-3.67-2.5,11.07,11.07,0,0,0-4.55-.94H121.31V99.27a1.25,1.25,0,0,1-2.5,0V60.53a1.1,1.1,0,0,1,1.25-1.25H133a13.89,13.89,0,0,1,5.48,1.09A14.2,14.2,0,0,1,146,68a14.05,14.05,0,0,1-2.3,14.68A15,15,0,0,1,140,85.73a13.26,13.26,0,0,1-4.65,1.65Z"/><path class="cls-1" d="M190.86,100.52a1.41,1.41,0,0,1-1-.46L163.08,64.29v35a1.25,1.25,0,1,1-2.5,0V60.53a1.09,1.09,0,0,1,.86-1.18,1.33,1.33,0,0,1,1.4.4l26.77,35.77v-35a1.25,1.25,0,0,1,2.5,0V99.27a1.09,1.09,0,0,1-.86,1.18S191.07,100.52,190.86,100.52Z"/><path class="cls-1" d="M209.07,100.52a1.1,1.1,0,0,1-1.25-1.25V60.53a1.25,1.25,0,0,1,2.5,0V99.27A1.1,1.1,0,0,1,209.07,100.52Z"/><path class="cls-1" d="M238.7,100.52a13.84,13.84,0,0,1-5.52-1.09,14.38,14.38,0,0,1-7.55-7.56,13.76,13.76,0,0,1-1.1-5.51V60.53a1.26,1.26,0,0,1,2.51,0V86.36a11.5,11.5,0,0,0,.9,4.54,11.64,11.64,0,0,0,6.22,6.22,11.57,11.57,0,0,0,12.76-2.5,12.8,12.8,0,0,0,2.5-3.72,11,11,0,0,0,.94-4.54V60.53a1.25,1.25,0,1,1,2.5,0V86.36a13.75,13.75,0,0,1-1.09,5.51,14.28,14.28,0,0,1-7.59,7.56A13.89,13.89,0,0,1,238.7,100.52Z"/><path class="cls-1" d="M300.43,100.52a1.14,1.14,0,0,1-.83-.35,1.22,1.22,0,0,1-.35-.9V64.36L285.31,83.85a1.17,1.17,0,0,1-1,.55,1.19,1.19,0,0,1-1-.55L269.43,64.36V99.27a1.26,1.26,0,0,1-2.51,0V60.53a1.1,1.1,0,0,1,.86-1.18,1.19,1.19,0,0,1,1.41.47L284.3,81l15.1-21.14a1.32,1.32,0,0,1,1.42-.47,1.1,1.1,0,0,1,.86,1.18V99.27A1.1,1.1,0,0,1,300.43,100.52Z"/><path class="cls-2" d="M40.34,101.23A22.4,22.4,0,0,1,33,96.42a23.54,23.54,0,0,1-5-7.19A23,23,0,0,1,39.41,58.9a21.71,21.71,0,0,1,8.73-2A21.94,21.94,0,0,1,57,58.51c2.52,1,5.48,3.52,5.52,5.2a3,3,0,0,1-5.12,2.42,11.85,11.85,0,0,0-2.76-1.69,16.41,16.41,0,0,0-6.34-1.11,15.57,15.57,0,0,0-6.23,1.42,16.44,16.44,0,0,0-8.4,9,16.61,16.61,0,0,0-1.12,6.47,16.79,16.79,0,0,0,1.4,6.41,17.1,17.1,0,0,0,3.59,5.22,16.17,16.17,0,0,0,5.21,3.45A15.2,15.2,0,0,0,49,96.41,15.92,15.92,0,0,0,55.29,95a35.28,35.28,0,0,0,7.63-5l.78-.73c.59-.55,1.32-1.26,2.07-2a25.6,25.6,0,0,0,3.66-10c-2.37,5.47-8.29,8.45-14.09,8.25,18-16.67,11.44-42.93-3.14-59.43,3.58,6.15,4.64,14.6-.31,20.35C50.34,37,44.56,30,38.08,23.58S29.74,8.93,31.31,0C21,4.88,19.07,17.5,19.88,27.45c.5,6.09,3.88,11.07,5.85,16.74a47.63,47.63,0,0,1,2.33,20.14c-.69-15-12.24-27.41-24.26-35.17,7.82,11.25,10.61,26.68,4.85,39.42-3.9-2.86-5.42-8.11-5.88-12.7C-.06,65.65-.14,78.9,9,85.48A14.75,14.75,0,0,1,0,81c6.08,13.6,20.41,21.45,35,21.56a41.45,41.45,0,0,0,7.42-.67C41.73,101.65,41,101.51,40.34,101.23Z"/></g></g></svg>