<?xml version="1.0" encoding="utf-8"?>
<!-- Generator: Adobe Illustrator 23.0.4, SVG Export Plug-In . SVG Version: 6.00 Build 0)  -->
<svg version="1.1" id="Calque_1" xmlns="http://www.w3.org/2000/svg" xmlns:xlink="http://www.w3.org/1999/xlink" x="0px" y="0px"
	 viewBox="0 0 129.7 85.8" style="enable-background:new 0 0 129.7 85.8;" xml:space="preserve">
<style type="text/css">
	.st0{fill-rule:evenodd;clip-rule:evenodd;fill:#9E9B26;}
	.st1{fill:#9E9B26;}
</style>
<title>Fichier 3</title>
<g>
	<g id="Calque_1-2">
		<path class="st0" d="M83.2,85.8L83.2,85.8c-3,0-5.3-2.4-5.3-5.4V50.1H69c2.9-25,11.1-50,16.6-50c1.6,0,2.9,1.3,2.9,2.9
			c0,0,0,0,0,0.1c0,5,0,59.3,0,77.3C88.5,83.3,86.2,85.8,83.2,85.8C83.2,85.8,83.2,85.8,83.2,85.8z M42.1,41.3c0-2.5-1.5-3.3-4.9-6
			c-2.6-1.9-4-5.1-3.9-8.3c0.9-9.1,3.1-27,3.1-27h2.2v21.4h3.6L42.9,0H45l0.6,21.4h3.6L50.1,0h2l0.7,21.4h3.6V0h2
			c0,0,2.4,17.9,3.4,27c0.3,3.2-1.5,6.4-4,8.4c-3.4,2.7-4.9,3.5-4.9,6v39c-0.1,3-2.6,5.3-5.6,5.1c-2.8-0.1-5-2.4-5.1-5.1L42.1,41.3z
			"/>
		<path class="st1" d="M25.2,51.5c0.7-9.5,5.2-15.7,5.2-25.9c0-3.1-0.4-6.2-1.1-9.3c-4.3-2.5-9.1-3.8-14.1-3.7
			c-4.9,0-9.8,1.2-14,3.7c-0.7,3-1.1,6.2-1.2,9.3C0,35.9,4.5,42,5.2,51.5c0.3,4.7-0.7,11.7-1.5,16c-0.7,3.9,5.4,5.9,11.5,5.9
			s12.2-2,11.5-5.9C25.9,63.3,24.9,56.3,25.2,51.5z M9.3,27.8c0,8.5,3.8,12.5,4.3,21.6c0.4,6.5-0.1,13-1.5,19.3
			c-1.3,0-2.7-0.3-3.9-0.7C9,63,10,56.2,9.6,51.2c-0.4-4.3-1.3-8.6-2.7-12.7C5.1,32.7,3.5,27.5,5,19.2c3.2-1.5,6.6-2.2,10.1-2.2
			c3.5,0,7,0.7,10.2,2.2c0.6,3,0.8,6.1,0.5,9.1C21.2,26.1,13,25.9,9.3,27.8z"/>
		<path class="st0" d="M104.6,61.8V50.4h4.2l2.1,11.4l2.1-11.4h4.2l-0.1,11.4l4.2-11.4h6.3l-7.4,22.8h-18.6l-7.4-22.8h6.2
			L104.6,61.8z M127.5,47.9H94.3c0,0-2.2-1.6-2.2-5.5c0-4.7,3.4-8,6.6-8.2c1.6,3.7,6.5,6.2,11,5.5c-5.2-1.4-11.9-9.4-8.1-15.7
			c2.7-4.5,9.3-3.8,8.1-11.5c4.4,1.5,7.2,5.5,6.6,10.9l0,0c4.4-0.2,8.1,3.3,6.6,10.9c3.7,0,6.6,3.7,6.6,8.2
			C129.6,44.5,128.8,46.4,127.5,47.9z"/>
	</g>
</g>
</svg>
