<?xml version="1.0" encoding="utf-8"?>
<!-- Generator: Adobe Illustrator 23.0.4, SVG Export Plug-In . SVG Version: 6.00 Build 0)  -->
<svg version="1.1" id="Calque_1" xmlns="http://www.w3.org/2000/svg" xmlns:xlink="http://www.w3.org/1999/xlink" x="0px" y="0px"
	 viewBox="0 0 512 512" style="enable-background:new 0 0 512 512;" xml:space="preserve">
<style type="text/css">
	.st0{fill:#FFFFFF;}
</style>
<path class="st0" d="M122.4,443.3c29.6,0,53.7-24.1,53.7-53.7c0-29.6-24.1-53.7-53.7-53.7S68.7,360,68.7,389.6
	C68.7,419.2,92.8,443.3,122.4,443.3z M122.4,343.4c25.4,0,46.1,20.7,46.1,46.1s-20.7,46.1-46.1,46.1S76.3,415,76.3,389.6
	C76.3,364.1,97,343.4,122.4,343.4z"/>
<path class="st0" d="M121.9,462c39.6,0,71.9-32.2,71.9-71.9s-32.2-71.9-71.9-71.9S50,350.5,50,390.1c0,15,4.6,29,12.6,40.6
	l-11.8,11.8l-1.6-1.6c-1.5-1.5-3.9-1.5-5.4,0L5.7,479.1C2,482.7,0,487.6,0,492.7c0,5.2,2,10,5.7,13.6s8.5,5.7,13.6,5.7
	s10-2,13.6-5.7l38.2-38.2c0.7-0.7,1.1-1.7,1.1-2.7c0-1-0.4-2-1.1-2.7l-1.6-1.6l11.8-11.8C92.8,457.4,106.8,462,121.9,462z
	 M121.9,325.8c35.5,0,64.3,28.8,64.3,64.3s-28.8,64.3-64.3,64.3c-35.5,0-64.3-28.8-64.3-64.3S86.4,325.8,121.9,325.8z M27.6,501
	c-2.2,2.2-5.2,3.4-8.3,3.4s-6.1-1.2-8.3-3.4c-4.6-4.6-4.6-12,0-16.6l35.5-35.5l1.6,1.6c0,0,0,0,0,0l15,15L27.6,501z M64.2,455.8
	l-8-8l11-11c2.5,2.9,5.1,5.6,8,8L64.2,455.8z"/>
<path class="st0" d="M109.5,379.6c2.1,0,3.8-1.7,3.8-3.8c0-2.6,1.1-5.1,3.1-6.8c2-1.8,4.5-2.6,7.2-2.3c4.2,0.5,7.6,3.9,8.1,8.1
	c0.4,3.7-1.4,7.3-4.6,9.1c-5.1,2.8-8.2,8.1-8.2,13.7v5.4c0,2.1,1.7,3.8,3.8,3.8c2.1,0,3.8-1.7,3.8-3.8v-5.4c0-2.9,1.7-5.6,4.4-7.1
	c5.9-3.3,9.2-9.8,8.5-16.5c-0.8-7.7-7.1-13.9-14.7-14.7c-4.8-0.5-9.5,1-13.1,4.2c-3.5,3.2-5.6,7.7-5.6,12.5
	C105.7,377.9,107.4,379.6,109.5,379.6z"/>
<path class="st0" d="M122.4,414c-1,0-2,0.4-2.7,1.1c-0.7,0.7-1.1,1.7-1.1,2.7c0,1,0.4,2,1.1,2.7c0.7,0.7,1.7,1.1,2.7,1.1
	c1,0,2-0.4,2.7-1.1c0.7-0.7,1.1-1.7,1.1-2.7c0-1-0.4-2-1.1-2.7C124.4,414.4,123.4,414,122.4,414z"/>
</svg>
