<?xml version="1.0" encoding="utf-8"?>
<!-- Generator: Adobe Illustrator 23.0.4, SVG Export Plug-In . SVG Version: 6.00 Build 0)  -->
<svg version="1.1" id="Calque_1" xmlns="http://www.w3.org/2000/svg" xmlns:xlink="http://www.w3.org/1999/xlink" x="0px" y="0px"
	 viewBox="0 0 513 513" style="enable-background:new 0 0 513 513;" xml:space="preserve">
<style type="text/css">
	.st0{fill:#FFFFFF;stroke:#000000;stroke-miterlimit:10;}
</style>
<title>Fichier 7</title>
<g>
	<g id="Capa_1">
		<path class="st0" d="M363.8,0.5H149.2C67.2,0.5,0.5,67.2,0.5,149.2v214.5c0,82,66.7,148.7,148.7,148.7h214.5
			c82,0,148.7-66.7,148.7-148.7V149.2C512.5,67.2,445.8,0.5,363.8,0.5z M472.5,363.8c-0.1,60-48.7,108.7-108.7,108.7H149.2
			c-60-0.1-108.7-48.7-108.7-108.7V149.2c0.1-60,48.7-108.7,108.7-108.7h214.5c60,0.1,108.7,48.7,108.7,108.7V363.8z"/>
		<path class="st0" d="M256.5,118.5c-76.1,0-138,61.9-138,138s61.9,138,138,138s138-61.9,138-138S332.6,118.5,256.5,118.5z
			 M256.5,354.5c-54.1,0-98-43.9-98-98s43.9-98,98-98s98,43.9,98,98C354.4,310.6,310.6,354.4,256.5,354.5z"/>
		<circle class="st0" cx="396.5" cy="116.5" r="20"/>
	</g>
</g>
</svg>
