<svg id="Calque_1" data-name="Calque 1" xmlns="http://www.w3.org/2000/svg" viewBox="0 0 129.63 85.78"><defs><style>.cls-1,.cls-2{fill:#fff;}.cls-1{fill-rule:evenodd;}</style></defs><title>platBoissonDesert</title><g id="Calque_1-2" data-name="Calque 1-2"><path class="cls-1" d="M83.18,85.78h0a5.38,5.38,0,0,1-5.35-5.36V50.07H69c2.86-25,11.08-50,16.64-50A2.91,2.91,0,0,1,88.52,3V80.38a5.36,5.36,0,0,1-5.32,5.4ZM42.09,41.32c0-2.47-1.55-3.27-4.92-6A9.76,9.76,0,0,1,33.29,27c.9-9.06,3.07-27,3.07-27h2.15V21.43h3.58L42.89,0h2.16l.62,21.43h3.58L50.12,0h2l.71,21.43h3.58V0h2s2.41,17.87,3.39,27c.35,3.22-1.46,6.4-4,8.42-3.39,2.68-4.93,3.45-4.93,6v39a5.38,5.38,0,0,1-10.75,0Z" transform="translate(0 0)"/><path class="cls-2" d="M25.19,51.54c.7-9.54,5.2-15.68,5.2-25.92a40.84,40.84,0,0,0-1.13-9.28,27.55,27.55,0,0,0-14.09-3.71,27.4,27.4,0,0,0-14,3.71A41,41,0,0,0,0,25.63C0,35.87,4.5,42,5.2,51.54c.35,4.73-.7,11.73-1.47,16C3,71.47,9.1,73.42,15.18,73.42s12.19-2,11.48-5.87C25.9,63.27,24.85,56.27,25.19,51.54ZM9.28,27.8c0,8.51,3.75,12.47,4.31,21.63a69.53,69.53,0,0,1-1.51,19.3A13.93,13.93,0,0,1,8.13,68C9,63,10,56.17,9.61,51.22A55.35,55.35,0,0,0,6.88,38.57C5.07,32.66,3.5,27.5,5,19.25a23.46,23.46,0,0,1,10.13-2.2,23.85,23.85,0,0,1,10.18,2.19,32.07,32.07,0,0,1,.5,9.12C21.17,26.07,13,25.92,9.28,27.8Z" transform="translate(0 0)"/><path class="cls-1" d="M104.64,61.84V50.44h4.2l2.08,11.4L113,50.44h4.25l-.08,11.4,4.17-11.4h6.26l-7.42,22.8H101.62l-7.41-22.8h6.25Zm22.82-13.93H94.34s-2.21-1.62-2.21-5.46c0-4.69,3.36-8,6.62-8.18,1.61,3.72,6.5,6.17,11,5.46-5.23-1.42-11.87-9.42-8.13-15.73,2.65-4.49,9.33-3.77,8.13-11.55,4.45,1.49,7.16,5.49,6.63,10.91h0c4.39-.25,8.07,3.29,6.62,10.91,3.66,0,6.63,3.66,6.63,8.18A8,8,0,0,1,127.46,47.91Z" transform="translate(0 0)"/></g></svg>