<?xml version="1.0" encoding="utf-8"?>
<!-- Generator: Adobe Illustrator 23.0.4, SVG Export Plug-In . SVG Version: 6.00 Build 0)  -->
<svg version="1.1" id="Calque_1" xmlns="http://www.w3.org/2000/svg" xmlns:xlink="http://www.w3.org/1999/xlink" x="0px" y="0px"
	 viewBox="0 0 100 100" style="enable-background:new 0 0 100 100;" xml:space="preserve">
<style type="text/css">
	.st0{fill:#FFFFFF;}
</style>
<g>
	<g id="Calque_1-2">
		<path class="st0" d="M63,64.6c15.3,0,27.6-12.4,27.6-27.6C90.6,21.7,78.3,9.4,63,9.4S35.4,21.7,35.4,37c0,0,0,0,0,0
			C35.4,52.3,47.7,64.6,63,64.6z M63,13.3c13.1,0,23.7,10.6,23.7,23.7S76.1,60.7,63,60.7c-13.1,0-23.7-10.6-23.7-23.7
			C39.3,23.9,49.9,13.3,63,13.3L63,13.3z"/>
		<path class="st0" d="M62.7,74.3c20.5,0,37.1-16.5,37.1-37c0-20.5-16.5-37.1-37-37.1s-37.1,16.5-37.1,37c0,7.5,2.2,14.8,6.5,21
			l-6,6l-0.8-0.8c-0.8-0.8-2-0.8-2.7,0c0,0,0,0,0,0L2.9,83C-1,86.9-1,93.2,2.9,97.1s10.1,3.9,14,0.1c0,0,0,0,0.1-0.1l19.7-19.7
			c0.8-0.8,0.8-2,0-2.7c0,0,0,0,0,0l-0.8-0.8l6-6C48,72,55.3,74.3,62.7,74.3z M62.7,4.2C81,4.2,95.8,19,95.8,37.3S81,70.4,62.7,70.4
			S29.6,55.6,29.6,37.3C29.7,19,44.4,4.2,62.7,4.2z M14.2,94.3c-2.4,2.4-6.2,2.4-8.5,0s-2.4-6.2,0-8.5L24,67.5l0.8,0.8l0,0l7.7,7.7
			L14.2,94.3z M33,71.1L28.9,67l5.7-5.7c1.3,1.5,2.6,2.9,4.1,4.1L33,71.1z"/>
		<path class="st0" d="M56.3,31.9c1.1,0,1.9-0.9,1.9-1.9c0-2.6,2.1-4.7,4.7-4.7c2.6,0,4.7,2.1,4.7,4.7c0,1.7-0.9,3.3-2.4,4.1
			c-2.6,1.4-4.2,4.1-4.2,7.1v2.8c0,1.1,0.9,1.9,1.9,1.9c1.1,0,1.9-0.9,1.9-1.9v-2.8c0-1.5,0.9-2.9,2.3-3.7c4.1-2.3,5.6-7.6,3.3-11.7
			s-7.6-5.6-11.7-3.3c-2.7,1.5-4.4,4.4-4.4,7.5C54.4,31,55.3,31.9,56.3,31.9L56.3,31.9z"/>
		<path class="st0" d="M63,49.5c-1.1,0-1.9,0.9-1.9,1.9c0,1.1,0.9,1.9,2,1.9c0.5,0,1-0.2,1.4-0.6c0.8-0.8,0.8-2,0-2.8
			C64,49.8,63.5,49.5,63,49.5z"/>
	</g>
</g>
</svg>
